HIERARCHY
ROOT Hips
{
  OFFSET -33.9132 29.2015 117.021
  CHANNELS 6 Xposition Yposition Zposition Zrotation Xrotation Yrotation
  JOINT LeftUpLeg
  {
    OFFSET 8.64259 1.95398 -2.38835
    CHANNELS 3 Zrotation Xrotation Yrotation
    JOINT LeftLeg
    {
      OFFSET 43.7702 0 0
      CHANNELS 3 Zrotation Xrotation Yrotation
      JOINT LeftFoot
      {
        OFFSET 40.6238 0 0
        CHANNELS 3 Zrotation Xrotation Yrotation
        JOINT LeftToeBase
        {
          OFFSET 12.7242 0 0
          CHANNELS 3 Zrotation Xrotation Yrotation
          End Site
          {
            OFFSET 0 0 0
          }
        }
      }
    }
  }
  JOINT RightUpLeg
  {
    OFFSET -8.2249 1.95398 -2.59336
    CHANNELS 3 Zrotation Xrotation Yrotation
    JOINT RightLeg
    {
      OFFSET 43.5653 0 0
      CHANNELS 3 Zrotation Xrotation Yrotation
      JOINT RightFoot
      {
        OFFSET 40.6238 0 0
        CHANNELS 3 Zrotation Xrotation Yrotation
        JOINT RightToeBase
        {
          OFFSET 12.7242 0 0
          CHANNELS 3 Zrotation Xrotation Yrotation
          End Site
          {
            OFFSET 0 0 0
          }
        }
      }
    }
  }
  JOINT Spine
  {
    OFFSET 0.165834 0.87714 6.61349
    CHANNELS 3 Zrotation Xrotation Yrotation
    JOINT Spine1
    {
      OFFSET 7.38963 1.71661e-005 0
      CHANNELS 3 Zrotation Xrotation Yrotation
      JOINT Spine2
      {
        OFFSET 11.9445 1.14441e-005 0
        CHANNELS 3 Zrotation Xrotation Yrotation
        JOINT Spine3
        {
          OFFSET 14.7254 4.19617e-005 0
          CHANNELS 3 Zrotation Xrotation Yrotation
          JOINT Spine4
          {
            OFFSET 10.9679 0 0
            CHANNELS 3 Zrotation Xrotation Yrotation
            JOINT RightShoulder
            {
              OFFSET 2.46616 -1.6653 3.69651
              CHANNELS 3 Zrotation Xrotation Yrotation
              JOINT RightArm
              {
                OFFSET 13.0012 0 0
                CHANNELS 3 Zrotation Xrotation Yrotation
                JOINT RightForeArm
                {
                  OFFSET 28.7848 1.62311e-005 0
                  CHANNELS 3 Zrotation Xrotation Yrotation
                  JOINT RightHand
                  {
                    OFFSET 26.5688 1.62095e-005 0
                    CHANNELS 3 Zrotation Xrotation Yrotation
                    End Site
                    {
                      OFFSET 0 0 0
                    }
                  }
                }
              }
            }
            JOINT LeftShoulder
            {
              OFFSET 2.38034 -1.29275 -3.7523
              CHANNELS 3 Zrotation Xrotation Yrotation
              JOINT LeftArm
              {
                OFFSET 16.3182 6.07031e-005 0
                CHANNELS 3 Zrotation Xrotation Yrotation
                JOINT LeftForeArm
                {
                  OFFSET 27.0901 0 0
                  CHANNELS 3 Zrotation Xrotation Yrotation
                  JOINT LeftHand
                  {
                    OFFSET 24.5451 1.51738e-005 0
                    CHANNELS 3 Zrotation Xrotation Yrotation
                    End Site
                    {
                      OFFSET 0 0 0
                    }
                  }
                }
              }
            }
            JOINT Neck
            {
              OFFSET 5.0226 -0.0266342 0
              CHANNELS 3 Zrotation Xrotation Yrotation
              JOINT Head
              {
                OFFSET 6.69364 2.86102e-005 0
                CHANNELS 3 Zrotation Xrotation Yrotation
                End Site
                {
                  OFFSET 0 0 0
                }
              }
            }
          }
        }
      }
    }
  }
}
MOTION
Frames:	17
Frame Time:	0.0416667
23.2525 97.1898 -42.447 -130.259 -76.1823 -134.371 -174.116 16.1397 82.3534 -26.4335 -0.736032 -4.40683 64.6816 2.12415 -0.842167 4.26031 -16.6599 5.66025 168.51 -12.4424 79.5944 -41.7879 -27.2721 -5.86331 62.7916 -2.16102 -1.78305 41.9305 -6.25529 3.46862 1.41694 7.86026 -89.9202 11.1579 2.85734 -0.120172 -0.509964 2.84928 -0.245926 -23.0692 2.76125 0.744803 -3.05654 2.76125 0.744796 89.3095 -26.8381 -109.459 47.2375 2.8388 -15.4706 -5.27256 -41.6063 -5.43391 -18.8978 2.81755 -22.6398 -86.3127 -53.645 84.7981 -18.9992 -15.4104 9.30521 -9.42063 23.216 -0.0414015 1.31521 -0.0329232 -13.5259 -4.40487 1.32253 6.01196 -6.83692 0.796432 -2.51653 
24.2414 97.3731 -35.1724 -131.971 -75.0331 -138.178 -175.039 11.3704 78.9001 -29.1184 -2.37472 -4.73622 70.2113 5.25134 0.455685 5.50405 -15.7759 5.55731 173.603 0.388306 78.4783 -63.9501 -26.0041 -8.39658 54.7711 3.27222 1.63946 26.302 0.472984 2.3828 1.15874 7.95235 -89.7059 10.9665 2.44307 0.352712 -0.702224 2.45622 0.244779 -23.2528 2.22407 1.07099 -3.2401 2.22407 1.07099 89.6139 -26.7579 -108.867 50.1803 2.81094 -10.8414 -5.26728 -41.5257 -5.43086 -16.3045 1.97522 -19.5617 -86.4667 -53.4019 84.5407 -18.1498 -14.25 -2.50533 -9.86795 22.9271 0.00240014 4.28291 -0.543535 -16.139 -5.76456 2.18083 7.70623 -5.95195 1.5347 -1.91885 
24.8447 98.0231 -29.5409 -141.305 -76.6272 -146.822 -175.911 6.6556 78.2339 -27.963 -0.462146 -3.93885 73.0064 7.02066 0.373294 7.13514 -15.6082 6.74044 177.873 10.0809 82.0323 -66.8332 -18.4984 -7.55369 63.3359 -2.60775 -1.08442 27.9181 -0.26139 2.55817 0.701111 8.01633 -89.841 10.8423 1.46944 0.177012 -0.827857 1.47581 0.112156 -23.3689 1.3483 0.610537 -3.35624 1.3483 0.610538 89.7654 -27.49 -108.238 49.7584 4.56807 -6.05876 -5.33101 -42.4602 -5.4679 -14.8107 1.5384 -17.6447 -86.1566 -51.4529 84.7111 -16.9853 -14.8431 -12.9216 -8.96691 23.5669 -0.657682 8.269 -1.63204 -21.2071 -6.60323 3.3181 8.38578 -6.05081 2.62453 0.224362 
24.9753 98.6352 -24.6746 -163.494 -79.7323 -167.319 -176.5 3.06468 79.4157 -26.3287 4.59049 -2.56738 74.8915 8.23202 0.617547 8.23891 -15.6344 7.75648 -179.481 15.9179 86.148 -52.242 -13.5593 -6.81574 66.0532 -4.6437 -1.0248 27.3174 0.429027 0.936423 0.25775 8.05959 -90.1911 10.7564 0.425177 -0.418814 -0.914516 0.406333 -0.437129 -23.45 0.53139 -0.27167 -3.43737 0.531384 -0.271678 90.2653 -27.4493 -107.228 47.9986 6.77807 -1.13536 -5.31159 -42.1787 -5.45667 -14.8466 1.56 -17.7603 -86.3549 -48.6662 83.9888 -17.7185 -16.4364 -22.7623 -7.17926 24.4684 -2.57173 12.1338 -2.86424 -24.8539 -6.6565 3.44108 8.2301 -5.06586 2.7268 1.78054 
25.0569 98.7292 -19.5629 162.025 -80.4307 158.416 -176.294 -0.565278 80.4276 -24.9723 11.4803 -2.21546 77.0264 9.876 1.20015 6.27741 -15.7889 6.23613 -177.024 17.5533 87.2446 -32.878 -23.2713 -7.45856 63.1851 -3.61055 -1.1962 29.0648 -0.498466 1.51298 -0.190466 8.06555 -90.2632 10.7415 -0.500605 -0.477203 -0.929456 -0.521115 -0.454729 -23.4643 -0.334044 -0.605591 -3.45166 -0.334042 -0.605605 90.542 -27.6817 -106.566 47.4062 8.08214 2.76351 -5.25191 -41.299 -5.42186 -14.7633 1.51875 -17.5056 -86.4246 -46.1297 83.4694 -18.3093 -17.5609 -30.5633 -6.82908 22.839 -2.7818 18.1719 -4.25901 -25.4586 -6.04673 3.35139 6.6262 -5.06282 2.71695 2.50606 
25.4225 98.2589 -13.7441 135.191 -77.3897 131.345 -175.222 -4.84601 82.2256 -24.5177 19.048 -2.50998 79.9075 12.202 1.14292 7.29614 -15.6033 6.87609 -178.013 15.5686 86.8919 -15.2274 -43.3824 -6.03735 61.6994 -2.40425 1.01886 33.8627 -2.32739 0.102459 -0.550153 8.08964 -90.2672 10.6925 -1.21868 -0.419858 -0.977943 -1.23598 -0.365813 -23.5159 -1.03616 -0.766742 -3.50327 -1.03616 -0.766729 90.7836 -28.6045 -105.716 46.6809 8.94035 5.09939 -5.23744 -41.08 -5.41359 -12.8081 1.41726 -18.5612 -87.1079 -45.0667 82.2011 -20.2847 -18.39 -33.8579 -6.04397 22.151 -3.49737 16.4441 -4.36999 -28.1731 -5.70395 2.67842 5.17328 -4.79158 2.15015 3.12658 
25.9771 97.4237 -7.07242 120.32 -71.9119 116.105 -174.476 -9.9515 84.7081 -23.838 26.4664 -1.99672 82.9964 15.4643 0.838125 8.07516 -16.1296 8.28722 -177.474 14.8643 87.8264 -17.0182 -49.7285 -8.45048 60.7593 -0.944406 2.08238 37.3614 -3.90423 0.133606 -0.911198 8.02643 -90.2305 10.8194 -1.92064 -0.280578 -0.850117 -1.93113 -0.195743 -23.395 -1.7475 -0.845005 -3.38231 -1.7475 -0.845011 91.0267 -29.778 -104.8 47.2761 8.95225 5.83357 -5.21893 -40.8011 -5.40293 -14.5566 1.458 -17.1682 -87.7469 -45.3283 81.238 -21.9212 -16.8518 -31.2966 -6.28291 24.4775 -3.02859 17.3508 -4.30125 -26.6773 -5.51976 2.15042 3.48228 -5.59978 1.73124 3.69015 
27.149 97.1667 0.188629 112.022 -65.1302 108.746 -174.302 -14.4357 87.9295 -24.285 31.5247 0.889968 83.3818 16.5436 0.771354 11.5604 -14.7654 9.64286 -176.562 15.7864 89.1591 -28.5018 -45.4798 -9.49418 59.0212 0.0976577 4.28327 33.9209 -1.6334 -3.44625 -1.00031 7.82018 -90.3497 11.2297 -2.15341 -0.483546 -0.439568 -2.1726 -0.388269 -22.9858 -1.90852 -1.10858 -2.97311 -1.90851 -1.10859 91.1847 -30.2469 -104.316 48.1159 8.85821 6.4296 -5.17004 -40.0521 -5.37533 -11.4038 1.20692 -18.0505 -86.3043 -46.0134 83.6399 -25.5923 -12.5384 -26.7743 -8.41846 29.4596 -0.477051 12.8924 -2.68569 -22.8891 -5.99808 0.856738 2.1955 -6.16895 0.562531 3.41115 
28.7692 98.1339 6.60962 106.787 -55.6147 106.478 -174.349 -13.1549 92.796 -33.5939 33.642 5.67025 77.1666 12.9203 2.95676 19.2985 -9.41974 8.93258 -179.92 11.0098 91.6133 -26.9636 -37.7303 -5.56693 62.4614 -1.91594 2.11534 30.9217 -1.43882 2.06714 -0.904873 7.72131 -90.7843 11.4178 -2.16652 -1.34326 -0.251953 -2.22353 -1.24658 -22.791 -1.66272 -1.93228 -2.77831 -1.66271 -1.93227 91.3422 -28.6656 -104.558 49.7574 8.03143 5.29371 -5.10263 -38.9941 -5.33811 -16.3714 1.35259 -15.0417 -87.1376 -47.0264 82.5084 -29.3135 -10.9794 -19.7905 -9.67776 31.5479 -0.0181057 6.97675 -0.553546 -14.0589 -5.89143 -1.00072 0.296358 -6.36577 -1.13762 3.58735 
29.9635 98.5929 11.174 102.302 -42.069 103.531 -175.427 -3.59286 97.3552 -50.6468 27.7642 7.11189 68.1019 6.16274 1.88021 16.8995 -8.23514 4.49168 175.91 6.13607 92.3383 -23.9705 -28.5756 -1.23301 66.082 -4.14299 -0.158564 28.6359 -1.21929 5.20647 -0.7265 7.75109 -90.9184 11.3564 -1.87387 -1.64213 -0.314168 -1.94431 -1.55807 -22.847 -1.29382 -2.12926 -2.83435 -1.29382 -2.12927 91.4361 -29.5128 -104.069 46.615 8.37605 2.8519 -5.33443 -42.5106 -5.47071 -15.5957 1.51217 -16.7386 -87.3924 -46.1446 81.9507 -29.8281 -11.769 -13.5407 -9.81659 34.744 -0.0165381 2.82874 0.439468 -7.93884 -3.70729 -3.68573 -3.73687 -5.46536 -3.30597 2.39541 
31.1447 98.664 14.2121 99.3879 -25.5752 101.28 -176.999 10.485 98.4626 -63.2645 14.1058 6.51036 63.524 2.75149 0.965438 9.0048 -11.5321 2.63399 173.242 1.20001 93.115 -21.6613 -14.9311 2.5073 67.7913 -3.91755 3.32908 31.1014 -0.742215 -1.3708 -0.515679 7.99574 -91.0174 10.8663 -1.49678 -1.88154 -0.805089 -1.57813 -1.81387 -23.332 -0.862279 -2.24425 -3.31938 -0.862285 -2.24424 90.9366 -29.6406 -105.027 41.8757 9.67562 1.66216 -5.30006 -42.0128 -5.45053 -17.9434 1.69325 -16.3658 -87.811 -46.588 81.3782 -23.8207 -13.4316 -7.2183 -9.77984 30.8387 -0.0110641 3.3659 -0.00774577 -12.1016 -0.911778 -6.69667 -8.0687 -1.94716 -5.58532 1.06535 
33.0097 98.6183 16.2904 97.4505 -8.8056 99.1699 -176.608 19.0334 95.9487 -61.9458 17.0709 4.19423 65.8692 4.34352 0.450247 9.00212 -12.4921 4.01067 172.05 -1.85923 92.53 -20.9467 -0.397326 3.71768 70.936 -3.6164 5.1165 31.6186 -0.465169 -3.75503 -0.17069 8.04688 -90.8653 10.7713 -0.738997 -1.65174 -0.900476 -0.810978 -1.61763 -23.4273 -0.208517 -1.79743 -3.41471 -0.208514 -1.79743 90.8184 -28.5526 -105.665 35.0717 12.311 4.19065 -5.65262 -46.7905 -5.66982 -13.1671 1.16623 -15.9576 -87.7926 -46.0484 81.303 -19.6889 -12.1995 -7.09984 -10.6061 23.9305 -0.00756385 6.74519 -0.714666 -14.9526 0.16392 -8.36476 -9.78815 -0.779046 -6.91992 -1.8617 
35.8043 98.5194 17.043 95.2364 3.74898 92.9022 -175.708 23.1499 89.5877 -49.7726 16.4317 0.96212 69.4867 6.57652 -0.533561 11.0906 -10.7341 3.22158 171.178 -3.78281 91.2453 -19.9971 12.28 4.19387 73.6005 -3.93646 2.79471 30.1539 -0.684433 0.238785 -0.0180991 7.86479 -90.5232 11.1419 -0.278963 -1.01409 -0.529388 -0.323344 -1.00084 -23.0614 0.0387003 -1.05105 -3.04873 0.0386979 -1.05105 91.2279 -27.2306 -105.321 31.9293 13.574 6.82784 -5.67503 -47.0737 -5.68587 -12.505 0.771889 -12.7583 -87.6226 -46.0909 81.5784 -16.896 -10.4325 -8.02342 -11.0803 23.7893 -0.010474 7.55037 -1.23848 -18.636 0.686973 -8.36462 -10.5025 -1.12679 -6.76216 -1.59841 
39.3063 98.7861 16.8529 94.4666 12.9398 88.317 -176.167 22.5485 83.5285 -31.6202 9.25477 -1.54775 66.4571 4.42781 -0.903825 12.9482 -11.0109 5.32853 171.362 -7.49518 89.994 -15.6195 22.6885 3.21683 73.4513 -4.17073 2.09155 31.6973 -1.575 1.10151 0.24664 7.84829 -90.14 11.1783 0.425526 -0.321811 -0.49264 0.410981 -0.340236 -23.028 0.502606 -0.179039 -3.01533 0.50259 -0.179043 91.8569 -25.4013 -104.689 32.4735 13.2442 5.3419 -5.08698 -38.7501 -5.3298 -15.3509 0.925344 -12.439 -87.5375 -47.0702 81.8946 -17.8518 -11.1749 -8.30776 -10.7546 20.4661 -0.0239927 6.75551 -1.29395 -20.1478 2.18927 -7.57089 -8.03829 -1.38232 -6.2371 -3.6006 
43.8191 98.4733 15.9037 93.5119 15.7052 86.4224 -177.224 20.9123 80.8192 -16.9572 3.33272 -2.74187 63.4627 2.46071 -1.31196 16.3954 -10.1992 7.28732 171.005 -10.5882 88.6578 -12.7832 25.9393 2.30111 73.0302 -4.39456 3.16922 32.8747 -1.58355 -1.3509 0.793403 7.74579 -89.8196 11.3814 1.66299 0.193364 -0.288447 1.66989 0.11996 -22.831 1.52798 0.684335 -2.81837 1.52799 0.684332 91.3702 -24.8806 -105.937 33.4582 12.3437 0.592548 -4.96651 -36.7663 -5.26598 -16.8044 1.40381 -15.1092 -87.5142 -49.1899 82.3115 -18.5364 -11.2675 -3.03266 -10.6772 18.8668 -0.215974 7.76876 -1.45109 -19.9 3.41175 -5.78517 -5.47479 -0.967521 -4.83561 -4.05185 
49.7704 97.4768 14.3226 93.3587 15.7853 85.4319 -177.127 21.1874 79.7187 -18.7833 -3.12715 -3.01881 65.2569 3.36797 0.523509 12.8852 -10.7768 4.89014 170.132 -14.7161 87.3051 -11.1342 25.5504 1.65304 72.7086 -5.75337 2.12956 35.372 -2.46151 -3.01948 1.20451 7.69438 -89.6008 11.4803 2.58305 0.532366 -0.188158 2.60397 0.418094 -22.7395 2.30359 1.28443 -2.72687 2.30359 1.28443 90.2976 -25.7164 -107.881 34.79 10.6979 -7.32118 -5.1373 -39.5366 -5.35753 -17.8349 1.98746 -18.4435 -86.7809 -51.3752 83.7725 -19.555 -13.0726 4.22436 -10.1358 20.6082 -0.0864571 4.08515 -0.51042 -14.7327 5.39975 -3.49572 -2.98843 -1.2327 -2.9341 -4.13872 
57.436 97.4811 11.6224 93.5892 16.3691 84.2673 -176.422 19.6135 78.3394 -24.496 -1.98446 -3.70384 65.4509 2.46498 1.68154 5.73796 -14.3592 3.86014 166.053 -17.1696 82.4689 -13.8363 20.0104 2.76773 64.7905 -3.16513 0.36784 45.6604 -7.29327 -3.39741 1.44302 7.55527 -89.2615 11.7494 3.21693 1.13292 0.0820686 3.26363 0.990108 -22.4736 2.72766 2.04783 -2.46098 2.72766 2.04783 89.6785 -27.2686 -108.511 38.794 7.73991 -13.4782 -5.34388 -42.646 -5.47611 -22.917 3.56594 -23.1777 -86.4533 -51.6267 84.2974 -20.6957 -15.7984 9.37052 -9.40038 22.79 -0.0295661 2.48813 0.0395715 -10.1622 5.60523 -2.32131 -3.43856 -1.36963 -1.68394 -4.14198 
